# xmcd
# 
# Track frame offsets:
#     150
#     21646
#     38440
#     55003
#     73023
#     90054
# 
# Disc length: 1523
# 
# Revision: 262151
# Processed by: cddbd v1.5.2PL0 Copyright (c) Steve Scherf et al.
# Submitted via: fre:ac v1.1beta1pre5
# 
DISCID=3f05f106
DTITLE=Taylor Swift - RED
DYEAR=2012
DGENRE=Country
TTITLE0=The Moment I Knew (Bonus Track)
TTITLE1=Come Back... Be Here (Bonus Track)
TTITLE2=Girl at Home (Bonus Track)
TTITLE3=Treacherous (Original Demo Recording) (Bonus Track)
TTITLE4=Red (Original Demo Recording) (Bonus Track)
TTITLE5=State of Grace (Acoustic Version) (Bonus Track)
EXTD=
EXTT0=
EXTT1=
EXTT2=
EXTT3=
EXTT4=
EXTT5=
PLAYORDER=
